<svg width="24" height="24" viewBox="0 0 24 24" fill="none" xmlns="http://www.w3.org/2000/svg">
<g id="24 / basic / delete">
<path id="icon" fill-rule="evenodd" clip-rule="evenodd" d="M8 4H21C22.1046 4 23 4.89543 23 6V18C23 19.1046 22.1046 20 21 20H8C7.49479 20 7.26688 19.8135 6.80345 19.3177C6.75713 19.2681 6.70992 19.216 6.66192 19.1616C6.47807 18.9533 6.31421 18.7494 6.23178 18.6402L0.698292 12L1.23178 11.3598L6.18177 5.42511C6.28585 5.27697 6.44363 5.0672 6.62702 4.85178C6.70024 4.76577 6.77252 4.68523 6.84401 4.6108C7.22963 4.20929 7.51573 4 8 4ZM8.14993 6.14822C8.01408 6.3078 7.8898 6.47303 7.76822 6.64018L3.30165 12.0001L7.79436 17.3926C7.87696 17.5006 8.01457 17.6717 8.1616 17.8384C8.19746 17.879 8.23194 17.9171 8.26461 17.952C8.28044 17.969 8.29568 17.985 8.31021 18H21V6H8.28281C8.24198 6.0427 8.19723 6.09265 8.14993 6.14822ZM16.2929 8.29289L14 10.5858L11.7071 8.29289L10.2929 9.70711L12.5858 12L10.2929 14.2929L11.7071 15.7071L14 13.4142L16.2929 15.7071L17.7071 14.2929L15.4142 12L17.7071 9.70711L16.2929 8.29289Z" fill="black"/>
</g>
</svg>
