<svg width="24" height="24" viewBox="0 0 24 24" fill="none" xmlns="http://www.w3.org/2000/svg">
<g id="24 / basic / eye-no">
<path id="icon" fill-rule="evenodd" clip-rule="evenodd" d="M2.7071 1.29289L1.29289 2.70711L5.35771 6.77193C4.97905 7.08574 4.60431 7.42275 4.2337 7.78115C3.40448 8.58305 2.6543 9.43916 1.9939 10.2956C1.5954 10.8124 1.31247 11.219 1.15756 11.4612L0.812958 12L1.15756 12.5388C1.31247 12.781 1.5954 13.1876 1.9939 13.7044C2.6543 14.5608 3.40448 15.417 4.2337 16.2189C6.66431 18.5694 9.27244 20 12 20C13.7209 20 15.3943 19.4305 17.0055 18.4198L21.2929 22.7071L22.7071 21.2929L2.7071 1.29289ZM15.5446 16.9588L14.032 15.4462C13.4364 15.7981 12.7418 16 12 16C9.79085 16 7.99999 14.2091 7.99999 12C7.99999 11.2582 8.20192 10.5635 8.55381 9.96803L6.77971 8.19393C6.39232 8.50634 6.00677 8.84872 5.62403 9.21885C4.86983 9.9482 4.18238 10.7327 3.57774 11.5169C3.44715 11.6862 3.32648 11.8478 3.21616 12C3.32648 12.1522 3.44715 12.3138 3.57774 12.4831C4.18238 13.2673 4.86983 14.0518 5.62403 14.7811C7.71748 16.8056 9.89492 18 12 18C13.1682 18 14.3586 17.6322 15.5446 16.9588ZM10.0677 11.482C10.0236 11.6472 9.99999 11.8208 9.99999 12C9.99999 13.1046 10.8954 14 12 14C12.1792 14 12.3528 13.9764 12.518 13.9323L10.0677 11.482ZM20.0981 15.891L18.6838 14.4767C19.318 13.8356 19.9009 13.1593 20.4222 12.4831C20.5528 12.3138 20.6735 12.1522 20.7838 12C20.6735 11.8478 20.5528 11.6862 20.4222 11.5169C19.8176 10.7327 19.1302 9.9482 18.376 9.21885C16.2825 7.19438 14.1051 6 12 6C11.4777 6 10.9509 6.07353 10.4221 6.21502L8.84014 4.63304C9.87259 4.22138 10.9271 4 12 4C14.7275 4 17.3357 5.43062 19.7663 7.78115C20.5955 8.58305 21.3457 9.43916 22.0061 10.2956C22.4046 10.8124 22.6875 11.219 22.8424 11.4612L23.187 12L22.8424 12.5388C22.6875 12.781 22.4046 13.1876 22.0061 13.7044C21.4349 14.4451 20.7966 15.1856 20.0981 15.891Z" fill="black"/>
</g>
</svg>
