<svg width="24" height="24" viewBox="0 0 24 24" fill="none" xmlns="http://www.w3.org/2000/svg">
<g id="24 / basic / eye">
<path id="icon" fill-rule="evenodd" clip-rule="evenodd" d="M12 4C14.7275 4 17.3357 5.43062 19.7663 7.78115C20.5955 8.58305 21.3457 9.43916 22.0061 10.2956C22.4046 10.8124 22.6875 11.219 22.8424 11.4612L23.187 12L22.8424 12.5388C22.6875 12.781 22.4046 13.1876 22.0061 13.7044C21.3457 14.5608 20.5955 15.417 19.7663 16.2189C17.3357 18.5694 14.7275 20 12 20C9.27244 20 6.66431 18.5694 4.2337 16.2189C3.40448 15.417 2.6543 14.5608 1.9939 13.7044C1.5954 13.1876 1.31247 12.781 1.15756 12.5388L0.812958 12L1.15756 11.4612C1.31247 11.219 1.5954 10.8124 1.9939 10.2956C2.6543 9.43916 3.40448 8.58305 4.2337 7.78115C6.66431 5.43062 9.27244 4 12 4ZM20.4222 11.5169C19.8176 10.7327 19.1302 9.9482 18.376 9.21885C16.2825 7.19438 14.1051 6 12 6C9.89492 6 7.71748 7.19438 5.62403 9.21885C4.86983 9.9482 4.18238 10.7327 3.57774 11.5169C3.44715 11.6862 3.32648 11.8478 3.21616 12C3.32648 12.1522 3.44715 12.3138 3.57774 12.4831C4.18238 13.2673 4.86983 14.0518 5.62403 14.7811C7.71748 16.8056 9.89492 18 12 18C14.1051 18 16.2825 16.8056 18.376 14.7811C19.1302 14.0518 19.8176 13.2673 20.4222 12.4831C20.5528 12.3138 20.6735 12.1522 20.7838 12C20.6735 11.8478 20.5528 11.6862 20.4222 11.5169ZM7.99999 12C7.99999 14.2091 9.79085 16 12 16C14.2091 16 16 14.2091 16 12C16 9.79086 14.2091 8 12 8C9.79085 8 7.99999 9.79086 7.99999 12ZM14 12C14 13.1046 13.1046 14 12 14C10.8954 14 9.99999 13.1046 9.99999 12C9.99999 10.8954 10.8954 10 12 10C13.1046 10 14 10.8954 14 12Z" fill="black"/>
</g>
</svg>
