<svg width="24" height="24" viewBox="0 0 24 24" fill="none" xmlns="http://www.w3.org/2000/svg">
<g id="24 / basic / flame">
<path id="icon" fill-rule="evenodd" clip-rule="evenodd" d="M11.1758 11.53C11.7223 10.763 11.6613 9.9553 11.2824 8.50235C10.533 5.62882 10.8314 4.05383 13.4147 2.18916L14.6756 1.27905L14.9806 2.80389C15.3047 4.42441 15.8369 5.42671 17.2036 7.35464C17.2579 7.43122 17.2579 7.43122 17.3124 7.50815C19.281 10.2854 20 11.9596 20 15C20 18.6884 16.2714 22 12 22C7.72841 22 4 18.6888 4 15C4 14.9311 4.00008 14.9331 3.98839 14.6285C3.89804 12.2718 4.33381 10.4274 6.09707 8.43586C6.46962 8.01509 6.89309 7.61068 7.36963 7.22371L8.42162 6.36946L8.92767 7.62658C9.30158 8.55547 9.7397 9.28567 10.2346 9.82151C10.6538 10.2754 10.9647 10.8461 11.1758 11.53ZM7.59449 9.76166C6.23712 11.2947 5.91441 12.6606 5.98692 14.5518C6.00042 14.9039 6 14.8915 6 15C6 17.5279 8.78361 20 12 20C15.2161 20 18 17.5275 18 15C18 12.4582 17.4317 11.135 15.6807 8.6647C15.6265 8.58818 15.6265 8.58818 15.5719 8.51125C14.5085 7.01111 13.8747 5.96759 13.4553 4.80052C12.7705 5.62118 12.8107 6.43739 13.2176 7.99766C13.967 10.8712 13.6686 12.4462 11.0853 14.3108L9.61228 15.3741L9.50185 13.5608C9.4313 12.4023 9.16907 11.6156 8.7654 11.1785C8.36657 10.7467 8.00647 10.2411 7.68356 9.66279C7.65343 9.69566 7.62375 9.72862 7.59449 9.76166Z" fill="black"/>
</g>
</svg>
