<svg width="24" height="24" viewBox="0 0 24 24" fill="none" xmlns="http://www.w3.org/2000/svg">
<g id="24 / basic / heart-no">
<path id="icon" fill-rule="evenodd" clip-rule="evenodd" d="M2.41421 1.29289L0.999994 2.70711L2.43895 4.14606C1.31026 5.4148 0.64328 7.15581 0.64328 9.11987C0.64328 12.1671 2.39888 15.1039 5.6663 17.9414C7.37949 19.4292 9.56674 20.9014 11.1317 21.6839L12 22.118L12.8683 21.6839C14.0985 21.0688 15.7134 20.0274 17.1801 18.8873L21 22.7071L22.4142 21.2929L2.41421 1.29289ZM15.7541 17.4612L3.85662 5.56373C3.09252 6.46444 2.64328 7.69908 2.64328 9.11987C2.64328 11.4905 4.10619 13.9377 6.97767 16.4313C8.55588 17.8019 10.588 19.1716 12 19.8819C13.0546 19.3514 14.4551 18.453 15.7541 17.4612ZM21.3567 9.11987C21.3567 10.9687 20.4669 12.8641 18.7131 14.7918L20.1287 16.2074C22.2395 13.9114 23.3567 11.5508 23.3567 9.11987C23.3567 5.13303 20.5229 2.01524 16.7154 2.00001C15.2257 2 14.269 2.17072 13.17 2.69014C12.7493 2.88896 12.3552 3.12992 11.9899 3.41237C11.6382 3.14534 11.2592 2.91507 10.8551 2.72211C9.7345 2.18693 8.72838 2 7.2924 2C6.85959 2 6.43991 2.03922 6.0359 2.11459L7.93828 4.01697C8.7423 4.06366 9.33392 4.212 9.99325 4.52687C10.4792 4.75895 10.9081 5.06494 11.2785 5.44644L12.0021 6.19178L12.7193 5.4403C13.098 5.04357 13.5332 4.7306 14.0246 4.49836C14.8247 4.12024 15.4984 4 16.7113 4.00001C19.3706 4.01065 21.3567 6.19577 21.3567 9.11987Z" fill="black"/>
</g>
</svg>
