<svg width="24" height="24" viewBox="0 0 24 24" fill="none" xmlns="http://www.w3.org/2000/svg">
<g id="24 / basic / mic-no">
<path id="icon" fill-rule="evenodd" clip-rule="evenodd" d="M8 9.41421L1.29289 2.70711L2.70711 1.29289L22.7071 21.2929L21.2929 22.7071L16.9056 18.3199C15.7991 19.18 14.4607 19.756 13 19.9381V21H16V23H8V21H11V19.9381C7.05369 19.446 4 16.0796 4 12V10H6V12C6 15.3137 8.68629 18 12 18C13.2958 18 14.4957 17.5892 15.4765 16.8907L14.032 15.4462C13.4365 15.7981 12.7418 16 12 16C9.79086 16 8 14.2091 8 12V9.41421ZM12.518 13.9323C12.3528 13.9764 12.1792 14 12 14C10.8954 14 10 13.1046 10 12V11.4142L12.518 13.9323ZM14 5V9.78579L16 11.7858V5C16 2.79086 14.2091 1 12 1C10.1613 1 8.61239 2.24059 8.14461 3.93039L10 5.78579V5C10 3.89543 10.8954 3 12 3C13.1046 3 14 3.89543 14 5ZM19.3584 15.1442L17.7907 13.5765C17.9272 13.0741 18 12.5456 18 12V10H20V12C20 13.1162 19.7714 14.1791 19.3584 15.1442Z" fill="black"/>
</g>
</svg>
