<svg width="24" height="24" viewBox="0 0 24 24" fill="none" xmlns="http://www.w3.org/2000/svg">
<g id="24 / basic / paperclip-no">
<path id="Shape" fill-rule="evenodd" clip-rule="evenodd" d="M12.8698 20.1377L15.774 17.1882L21.2929 22.7071L22.7071 21.2929L2.70711 1.29289L1.29289 2.70711L6.71792 8.13213L3.85825 11.0351C1.38115 13.562 1.38115 17.6127 3.85654 20.1378C6.31029 22.6408 10.4559 22.6007 12.8698 20.1377ZM8.44995 14.3627L10.682 12.0962L11.8149 13.2291L9.551 15.5289C9.25337 15.8363 8.7508 15.8377 8.44995 15.5306C8.13291 15.207 8.13291 14.6863 8.44995 14.3627ZM13.2292 14.6434L10.9821 16.9261C9.9074 18.036 8.10955 18.041 7.02135 16.9303C5.94245 15.8291 5.94245 14.0642 7.02315 12.9612L9.26772 10.6819L8.13217 9.54638L5.28475 12.4369C3.57175 14.1843 3.57175 16.9903 5.28475 18.7377C6.94816 20.4345 9.80565 20.4069 11.4431 18.7361L14.3597 15.7739L13.2292 14.6434ZM12.0604 7.84617L13.4746 9.26042L14.7682 7.94694L13.3431 6.5436L12.0604 7.84617ZM14.607 10.3928L16.5024 8.46733C17.5172 7.4317 17.5172 5.76849 16.5024 4.73286C15.5342 3.74476 13.821 3.76674 12.872 4.73474L10.9252 6.71102L9.51099 5.29677L11.4455 3.33293C13.169 1.57486 16.1703 1.53636 17.9309 3.33307C19.7077 5.14634 19.7077 8.05385 17.9293 9.86875L16.0212 11.807L14.607 10.3928ZM20.2921 9.7489L17.1521 12.9379L18.5664 14.3522L21.7172 11.1521L20.2921 9.7489Z" fill="black"/>
</g>
</svg>
