<svg width="24" height="24" viewBox="0 0 24 24" fill="none" xmlns="http://www.w3.org/2000/svg">
<g id="24 / basic / paperclip">
<path id="icon" fill-rule="evenodd" clip-rule="evenodd" d="M13.3431 6.5436L14.7682 7.94694L8.44995 14.3627C8.13292 14.6863 8.13292 15.207 8.44995 15.5306C8.7508 15.8377 9.25337 15.8363 9.551 15.5289L16.5024 8.46734C17.5172 7.43171 17.5172 5.76849 16.5024 4.73286C15.5342 3.74477 13.821 3.76675 12.872 4.73475L5.28475 12.4369C3.57175 14.1843 3.57175 16.9903 5.28475 18.7377C6.94816 20.4345 9.80565 20.4069 11.4431 18.7361L20.2921 9.74891L21.7172 11.1521L12.8698 20.1377C10.4559 22.6007 6.31029 22.6408 3.85654 20.1378C1.38115 17.6127 1.38115 13.562 3.85825 11.0351L11.4455 3.33294C13.169 1.57487 16.1703 1.53636 17.9309 3.33308C19.7077 5.14634 19.7077 8.05386 17.9293 9.86875L10.9821 16.9261C9.9074 18.036 8.10955 18.041 7.02135 16.9303C5.94245 15.8291 5.94245 14.0642 7.02315 12.9612L13.3431 6.5436Z" fill="black"/>
</g>
</svg>
