<svg width="24" height="24" viewBox="0 0 24 24" fill="none" xmlns="http://www.w3.org/2000/svg">
<g id="24 / basic / star-no">
<path id="icon" fill-rule="evenodd" clip-rule="evenodd" d="M6.8513 8.26551L1.2929 2.70711L2.70711 1.29289L22.7071 21.2929L21.2929 22.7071L18.7303 20.1445L19.206 22.9182L12 19.1298L4.79402 22.9182L6.17024 14.8942L0.340477 9.21159L6.8513 8.26551ZM16.281 17.6952L16.5497 19.2622L12 16.8702L7.45028 19.2622L8.3192 14.196L4.6384 10.6081L8.6159 10.0301L16.281 17.6952ZM19.3616 10.6081L17.0629 12.8487L18.4773 14.263L23.6595 9.21159L15.603 8.04091L12 0.740448L9.67191 5.45769L11.1652 6.951L12 5.25955L14.2749 9.86892L19.3616 10.6081Z" fill="black"/>
</g>
</svg>
